<svg width="17" height="12" viewBox="0 0 17 12" fill="none" xmlns="http://www.w3.org/2000/svg">
<path d="M0.500001 1.17803C0.500001 1.4014 0.608416 1.55295 0.72891 1.72047L6.81323 10.6863C7.13857 11.141 7.66867 11.5 8.43975 11.5C9.19881 11.5 9.75301 11.149 10.0662 10.6784L16.2952 1.72047C16.4156 1.56092 16.5 1.41732 16.5 1.20995C16.5 0.795145 16.0662 0.5 15.4277 0.5C14.8735 0.5 14.5602 0.691442 14.3193 1.02648L8.59639 9.6095L8.46386 9.6095L2.69276 1.02647C2.45182 0.691442 2.13856 0.499999 1.58435 0.499999C0.921681 0.499999 0.500001 0.78718 0.500001 1.17803Z" fill="#B5B3B3"/>
</svg>
