<svg width="30" height="30" viewBox="0 0 30 30" fill="none" xmlns="http://www.w3.org/2000/svg">
<circle cx="15" cy="15" r="15" fill="#E7E6ED"/>
<path d="M11.625 20.5558C11.7942 20.5558 11.909 20.4768 12.0359 20.3889L18.8283 15.9524C19.1727 15.7152 19.4447 15.3287 19.4447 14.7664C19.4447 14.2129 19.1788 13.8088 18.8222 13.5805L12.0359 9.03849C11.9151 8.95067 11.8063 8.88916 11.6492 8.88916C11.3349 8.88916 11.1113 9.20544 11.1113 9.67106C11.1113 10.0752 11.2564 10.3036 11.5102 10.4793L18.0125 14.6522V14.7488L11.5102 18.9569C11.2564 19.1326 11.1113 19.361 11.1113 19.7652C11.1113 20.2484 11.3289 20.5558 11.625 20.5558Z" fill="#B5B3B3"/>
</svg>
