<svg width="11" height="16" viewBox="0 0 11 16" fill="none" xmlns="http://www.w3.org/2000/svg">
<path d="M0.67803 16C0.901397 16 1.05295 15.8916 1.22047 15.7711L10.1863 9.68677C10.641 9.36143 11 8.83133 11 8.06025C11 7.30119 10.649 6.74699 10.1784 6.43377L1.22047 0.2048C1.06092 0.0843568 0.917325 0 0.709954 0C0.295145 0 0 0.433761 0 1.07232C0 1.62653 0.191443 1.93979 0.526476 2.18073L9.1095 7.90361V8.03614L0.526476 13.8072C0.191443 14.0482 0 14.3614 0 14.9157C0 15.5783 0.287181 16 0.67803 16Z" fill="#B5B3B3"/>
</svg>
